<?xml version="1.0" encoding="UTF-8"?>
<svg id="Capa_3" data-name="Capa 3" xmlns="http://www.w3.org/2000/svg" viewBox="0 0 21.16 18.32">
  <defs>
    <style>
      .cls-1 {
        fill: #fff;
        stroke-width: 0px;
      }
    </style>
  </defs>
  <path class="cls-1" d="m20.16,3.24c-1.32-1.84-3.9-2.52-6.04-2.03-1.7.39-3.03,1.51-3.82,2.96-.64-1.46-1.68-2.74-3.11-3.5C5.22-.4,2.86.07,1.39,1.74c-2.73,3.13-.57,8.05,1.44,10.93,1.57,2.25,3.59,4.27,6.09,5.45,0,0,0,0,0,0,0,0,0,0,0,0,0,0,0,0,0,0,.15.1.35.14.58.08,2.23-.63,4.25-1.61,6.07-3.05,1.9-1.51,3.67-3.25,4.63-5.51.87-2.07,1.37-4.44-.05-6.41Zm-.9,4.61c-1.3,4.38-5.64,7.56-9.89,8.83-3.61-1.83-6.85-5.82-7.58-9.82-.41-2.26.31-5.29,3.15-5.27,2.7.01,4.26,3.03,4.57,5.34.12.9,1.4.57,1.47-.2.25-2.54,2.53-4.43,5.07-4.15,1.21.14,2.5.77,3.09,1.88.59,1.12.45,2.23.11,3.39Z"/>
</svg>