<?xml version="1.0" encoding="UTF-8"?>
<svg id="Capa_3" data-name="Capa 3" xmlns="http://www.w3.org/2000/svg" viewBox="0 0 22.99 21.69">
  <defs>
    <style>
      .cls-1 {
        fill: #fff;
        stroke-width: 0px;
      }
    </style>
  </defs>
  <path class="cls-1" d="m17.62,13.14c.74-.34,1.41-.83,1.94-1.49,1.23-1.51,2.07-4.19.95-5.97-1.1-1.74-3.32-2.01-5.16-1.53-.77.2-1.47.55-2.06,1.02-.07-.92-.25-1.82-.56-2.55C12.04,1.02,10.55,0,8.78.22c-1.72.21-3.02,1.47-3.59,3.07-.55,1.54-.32,3.14.24,4.63-1.44.07-2.86.67-3.86,1.7C.1,11.15-.15,13.57.65,15.48c1.45,3.45,5.52,2.7,7.94.61.28,3.07,1.96,6.49,5.43,5.07,1.54-.63,2.63-2.14,2.85-3.77.14-1.09-.07-2.14-.51-3.11,2.62.85,4.79,3.09,4.93,5.95.02.4.33.75.75.75.39,0,.77-.34.75-.75-.15-3.2-2.31-5.87-5.17-7.09Zm-3.9,6.52c-3.14,1.68-3.98-3.46-3.61-5.49.14-.78-.95-1.38-1.37-.58-1.12,2.14-5.48,4.43-6.75,1.21-1.13-2.87,1.3-5.88,4.34-5.35.21.07.44.03.63-.1.03-.02.05-.04.08-.07.05-.04.09-.08.13-.13.01-.02.02-.04.04-.06.04-.06.07-.12.09-.19.02-.06.02-.12.03-.18,0-.02,0-.03,0-.05,0-.15-.04-.29-.13-.4-.63-1.28-1.05-2.73-.69-4.15.31-1.21,1.18-2.26,2.47-2.41,2.75-.32,3.1,3.53,2.67,5.77-.07.22-.13.44-.17.67-.01.04-.02.08-.04.12,0,0,0,0,.01,0-.01.07-.03.13-.04.2-.1.89,1.21.94,1.47.2.11-.31.19-.66.26-1.02.48-1.09,1.58-1.83,2.74-2.1,1.22-.28,2.88-.19,3.46,1.14.55,1.27-.18,3.14-1.05,4.12-.93,1.05-2.33,1.54-3.7,1.18-.73-.19-1.25.71-.73,1.25,1.66,1.74,2.41,5.04-.16,6.41Z"/>
</svg>