<?xml version="1.0" encoding="UTF-8"?>
<svg id="Capa_3" data-name="Capa 3" xmlns="http://www.w3.org/2000/svg" viewBox="0 0 23.91 23.24">
  <defs>
    <style>
      .cls-1 {
        fill: #fff;
        stroke-width: 0px;
      }
    </style>
  </defs>
  <path class="cls-1" d="m23.2,10.6l-7.8-2.75c-.81-2.38-1.62-4.75-2.44-7.13-.08-.23-.23-.38-.41-.45-.28-.15-.62-.14-.85.14-.09.08-.16.19-.19.31-.93,1.84-1.81,3.7-2.68,5.57-.07.16-.55.92-.67,1.3-.12.04-.23.09-.32.12-2.38.75-4.75,1.5-7.13,2.24C0,10.18,0,11.17.71,11.4c2.52.8,5.04,1.61,7.56,2.41.68,2.9,1.36,5.81,2.04,8.71.14.58,1.11.78,1.37.18.57-1.33,1.14-2.66,1.7-3.99.41-.95.81-1.9,1.22-2.85.04-.11.48-.93.61-1.33.28-.07.56-.17.83-.26.95-.3,1.9-.59,2.85-.89,1.43-.44,2.86-.89,4.3-1.33.73-.23.69-1.2,0-1.45Zm-8.18,3.98c-.13.05-.21.05,0,0h0Zm.22-.13c.02-.06.03-.11.01-.13.04.05.02.09-.01.13Zm3.15-2.48c-.99.31-1.98.61-2.97.92-.43.13-1.09.22-1.4.58-.29.33-.42.92-.59,1.31l-1.22,2.86c-.33.76-.65,1.53-.98,2.29-.17-.72-.34-1.43-.5-2.15-.25-1.06-.5-2.12-.75-3.18-.12-.49-.16-1.1-.37-1.57-.23-.53-.68-.59-1.18-.75l-2.72-.86c-.78-.25-1.56-.5-2.34-.75,1.69-.53,3.39-1.07,5.08-1.6.99-.31,1.13-.91,1.55-1.83.68-1.47,1.38-2.93,2.09-4.38.3.88.6,1.75.9,2.63l.84,2.46c.18.52.24.93.76,1.2,1.24.65,2.78.98,4.09,1.44l1.92.68c-.74.23-1.48.46-2.22.69Z"/>
</svg>