<?xml version="1.0" encoding="UTF-8"?>
<svg id="Capa_3" data-name="Capa 3" xmlns="http://www.w3.org/2000/svg" viewBox="0 0 24.76 18.35">
  <defs>
    <style>
      .cls-1 {
        fill: #fff;
        stroke-width: 0px;
      }
    </style>
  </defs>
  <path class="cls-1" d="m8.69,4.76c.05.4.31.75.75.75.36,0,.8-.35.75-.75-.26-1.93-1.42-3.68-3.32-4.32-1.9-.63-4.27.03-5.52,1.6-.65.81-1.01,1.77-1.07,2.81-.05.96,1.45.96,1.5,0,.09-1.69,1.54-2.99,3.26-3.11.95-.07,1.84.17,2.54.84.59.57,1.01,1.39,1.12,2.19Z"/>
  <path class="cls-1" d="m17.8,12.1c-.17,2.75-2.78,4.39-5.33,4.53-2.9.16-5.36-1.7-5.79-4.61-.14-.95-1.59-.55-1.45.4.53,3.63,3.87,5.98,7.44,5.7,3.33-.26,6.41-2.5,6.63-6.02.06-.96-1.44-.96-1.5,0Z"/>
  <path class="cls-1" d="m21.16.45c-1.9-.63-4.27.03-5.52,1.6-.65.81-1.01,1.77-1.07,2.81-.05.96,1.45.96,1.5,0,.09-1.69,1.54-2.99,3.26-3.11.95-.07,1.84.17,2.54.84.59.57,1.01,1.39,1.12,2.19.05.4.31.75.75.75.36,0,.8-.35.75-.75-.26-1.93-1.42-3.68-3.32-4.32Z"/>
</svg>