<?xml version="1.0" encoding="UTF-8"?>
<svg id="Capa_3" data-name="Capa 3" xmlns="http://www.w3.org/2000/svg" viewBox="0 0 19.13 21.16">
  <defs>
    <style>
      .cls-1 {
        fill: #fff;
        stroke-width: 0px;
      }
    </style>
  </defs>
  <path class="cls-1" d="m18.92,8.42C19.25-.23,6.43-2.36,1.66,3.59.51,5.02.04,6.74.25,8.53c0,.09,0,.17.03.26,1,2.59,1.99,5.19,3.01,7.77.34.85.56,1.9,1.16,2.62.47.56,1.13.95,1.8,1.23,2.27.91,5.19.62,7.3-.59.43-.25.93-.56,1.25-.95.28-.35.42-.87.6-1.28,1.21-2.91,2.39-5.83,3.5-8.78.05-.14.05-.26.03-.38ZM9.58,1.74c3.88-.06,7.75,2.21,7.83,6.32-4.93,1.87-10.79,1.9-15.72-.02C1.32,3.86,6.06,1.79,9.58,1.74Zm4.11,16.09s.03-.03.04-.03c0,0-.02.01-.04.03Zm-.09.18c-.04.09-.03.06,0,0h0Zm.94-2.27c-.29.71-.61,1.41-.88,2.13-.08.08-.2.2-.21.21-1.57,1.32-4.12,1.64-6.05,1.13-.66-.17-1.29-.46-1.77-.95-.18-.18-.05-.02-.13-.16-.32-.59-.52-1.3-.76-1.93-.83-2.1-1.63-4.2-2.44-6.31,2.17.69,4.51,1.01,6.74,1.1,2.6.1,5.33-.28,7.85-1.1-.76,1.97-1.54,3.93-2.34,5.88Z"/>
</svg>