<?xml version="1.0" encoding="UTF-8"?>
<svg id="Capa_3" data-name="Capa 3" xmlns="http://www.w3.org/2000/svg" viewBox="0 0 14.2 26.68">
  <defs>
    <style>
      .cls-1 {
        fill: #fff;
        stroke-width: 0px;
      }
    </style>
  </defs>
  <path class="cls-1" d="m8.64.41C4.57-.25,1.08,2.35.25,6.35c-.38,1.84.56,3.64,1.16,5.35.98,2.8,1.97,5.61,2.95,8.41.67,1.91,1.34,3.82,2.01,5.73.25.71,1.2.71,1.45,0,2.01-5.79,4.03-11.57,6.04-17.36.86-3.52-1.69-7.5-5.22-8.07Zm-4.27,2.17c1.69-1.08,4.32-1.13,5.98.05,1.3.92,2.24,3.04,2.17,4.74-1.44,1.2-3.46,1.68-5.29,1.75-2,.08-4.17-.39-5.59-1.9,0-.01,0-.03,0-.04.1-1.77,1.27-3.67,2.74-4.61Zm-.35,12.02c-.59-1.68-1.18-3.36-1.77-5.04,1.5.81,3.29,1.13,4.97,1.06,1.61-.06,3.25-.41,4.71-1.13-1.61,4.62-3.22,9.25-4.83,13.87-1.02-2.92-2.05-5.85-3.07-8.77Z"/>
</svg>