<?xml version="1.0" encoding="UTF-8"?>
<svg id="Capa_3" data-name="Capa 3" xmlns="http://www.w3.org/2000/svg" viewBox="0 0 22.9 21.75">
  <defs>
    <style>
      .cls-1 {
        fill: #fff;
        stroke-width: 0px;
      }
    </style>
  </defs>
  <path class="cls-1" d="m20.87,8.28c-.98-.86-2.23-1.23-3.5-1.25.08-.38.16-.76.24-1.14.02-.1.01-.18,0-.27.06-.56-.01-1.14-.23-1.65-.53-1.27-1.94-2.1-3.14-2.65C11.32,0,7.79,0,4.72.73,2.41,1.28-.02,2.96.27,5.63c0,0,0,0,0,0,0,0,0,.01,0,.02.49,2.75,1.01,5.49,1.57,8.22.23,1.15.47,2.3.71,3.46.1.5.14,1.1.32,1.57.21.53.83.95,1.29,1.27,2.16,1.49,5.45,1.74,7.85.71,1.12-.48,2.48-1.28,2.79-2.52.11-.43.21-.87.32-1.31.05.03.1.07.17.09,2.54.74,5.62.11,6.87-2.46.98-2.03.4-4.92-1.3-6.42ZM4.34,2.4c2.46-.82,5.31-.85,7.81-.23,1.61.4,5.12,1.96,3.65,4.09-1.58,1.78-4.48,2.39-6.74,2.55-2.42.17-5.22-.39-6.88-2.33-.15-.17-.25-.35-.33-.52-.04-.23-.09-.47-.13-.7,0-.03-.02-.05-.03-.07.05-1.26,1.49-2.4,2.65-2.79Zm9.65,13.06c-.15.6-.29,1.2-.44,1.81-.07.27-.1.6-.21.85-.14.29-.41.5-.67.69-1.99,1.51-5.17,1.59-7.31.34-.45-.26-.96-.55-1.11-1.06-.14-.47-.2-.98-.3-1.47-.21-1.01-.42-2.02-.62-3.03-.34-1.66-.64-3.33-.95-5,.08.06.15.11.23.17,1.22.85,2.65,1.31,4.12,1.49,2,.25,4.08-.03,6-.59.98-.29,1.97-.7,2.85-1.26-.27,1.3-.54,2.6-.83,3.9-.24,1.05-.48,2.1-.73,3.15Zm6.97-1.72c-.27.74-.89,1.39-1.61,1.78-1.13.61-2.45.53-3.65.19-.08-.02-.16-.02-.23-.02.1-.41.2-.82.3-1.23.46-1.97.88-3.94,1.29-5.92.91-.02,1.82.12,2.57.66.66.48,1.09,1.22,1.31,2,.24.86.32,1.74.03,2.55Z"/>
</svg>