<svg width="26" height="26" viewBox="0 0 26 26" fill="none" xmlns="http://www.w3.org/2000/svg">
<path fill-rule="evenodd" clip-rule="evenodd" d="M9 15C12.3137 15 15 12.3137 15 9C15 5.68629 12.3137 3 9 3C5.68629 3 3 5.68629 3 9C3 12.3137 5.68629 15 9 15ZM9 18C13.9706 18 18 13.9706 18 9C18 4.02944 13.9706 0 9 0C4.02944 0 0 4.02944 0 9C0 13.9706 4.02944 18 9 18Z" fill="#F8AF43"/>
<path d="M14.1916 14.2175C14.8497 13.5451 15.9283 13.5335 16.6007 14.1916L24.6229 22.0432C25.2954 22.7013 25.3069 23.7799 24.6488 24.4523C23.9907 25.1247 22.9122 25.1363 22.2398 24.4782L14.2175 16.6266C13.5451 15.9685 13.5335 14.8899 14.1916 14.2175Z" fill="#F8AF43"/>
</svg>
