<?xml version="1.0" encoding="utf-8"?>
<!-- Generator: Adobe Illustrator 27.9.0, SVG Export Plug-In . SVG Version: 6.00 Build 0)  -->
<svg version="1.1" id="Capa_2_00000047767587089137941130000007151180193063929023_"
	 xmlns="http://www.w3.org/2000/svg" xmlns:xlink="http://www.w3.org/1999/xlink" x="0px" y="0px" viewBox="0 0 23 23"
	 style="enable-background:new 0 0 23 23;" xml:space="preserve">
<style type="text/css">
	.st0{fill:#FFFFFF;}
</style>
<path class="st0" d="M11.4,17.1c-3,0-5.5-2.5-5.5-5.5s2.5-5.5,5.5-5.5s5.5,2.5,5.5,5.5S14.5,17.1,11.4,17.1z M11.4,8
	c-1.9,0-3.5,1.6-3.5,3.5S9.5,15,11.4,15s3.5-1.6,3.5-3.5S13.4,8,11.4,8z M16.3,22.7H6.7c-3.4,0-6.2-2.8-6.2-6.2V7.3
	c0-3.8,3.1-6.9,6.9-6.9h8.3c3.8,0,6.9,3.1,6.9,6.9v9.2C22.6,19.9,19.8,22.7,16.3,22.7z M7.4,2.3c-2.7,0-4.9,2.2-4.9,4.9v9.2
	c0,2.3,1.9,4.2,4.2,4.2h9.7c2.3,0,4.2-1.9,4.2-4.2V7.3c0-2.7-2.2-4.9-4.9-4.9H7.4V2.3z M17.5,7c0.7,0,1.3-0.6,1.3-1.3
	s-0.6-1.3-1.3-1.3S16.2,5,16.2,5.7S16.8,7,17.5,7z"/>
</svg>
