<?xml version="1.0" encoding="utf-8"?>
<!-- Generator: Adobe Illustrator 27.9.0, SVG Export Plug-In . SVG Version: 6.00 Build 0)  -->
<svg version="1.1" id="Capa_1" xmlns="http://www.w3.org/2000/svg" xmlns:xlink="http://www.w3.org/1999/xlink" x="0px" y="0px"
	 viewBox="0 0 27.2 18.8" style="enable-background:new 0 0 27.2 18.8;" xml:space="preserve">
<style type="text/css">
	.st0{fill:#FFFFFF;}
</style>
<g transform="translate(1.4065934065934016 1.4065934065934016) scale(2.81 2.81)">
	<path class="st0" d="M8.6,0.7C8.5,0.3,8.2,0,7.9-0.1C7.2-0.3,4.4-0.3,4.4-0.3s-2.8,0-3.5,0.2C0.5,0,0.2,0.3,0.1,0.7
		c-0.2,0.7-0.2,2.2-0.2,2.2s0,1.5,0.2,2.2c0.1,0.4,0.4,0.7,0.8,0.8C1.5,6,4.4,6,4.4,6s2.8,0,3.5-0.2C8.2,5.7,8.5,5.4,8.6,5
		c0.2-0.7,0.2-2.2,0.2-2.2S8.8,1.4,8.6,0.7z M3.5,4.2V1.5l2.3,1.3L3.5,4.2z"/>
</g>
</svg>
